<?xml version="1.0" encoding="UTF-8" standalone="yes"?>
<svg
  xmlns="http://www.w3.org/2000/svg"
  version="1.1"
>
  <path
    id="path4046"
    style="fill:#9267b4;stroke:#4b568b;stroke-width:4.82955074"
    d="M 11.785427,8.7117427 C 8.7151977,18.174726 8.7848857,31.99688 12.943053,42.024304 7.8836457,53.413396 4.8184627,65.474916 3.3517417,75.506546 c 8.4464363,6.60733 21.1464353,8.81651 28.7909823,9.31854 1.75066,2.8152 5.89573,5.63173 9.0124,6.22372 3.4068,0.64711 6.26531,0.89266 9.17809,0.81623 2.91265,0.0764 5.77115,-0.16912 9.17809,-0.81623 3.11687,-0.59199 7.26202,-3.40852 9.0124,-6.22372 7.64387,-0.50168 20.36023,-2.71093 28.80735,-9.31854 -1.27757,-12.14425 -4.58748,-24.477123 -9.60768,-33.465414 4.16587,-10.028826 4.2297,-23.860095 1.15763,-33.3293893 -8.17369,1.5574383 -15.37365,6.9628233 -18.91806,11.9542383 -5.68196,-3.37606 -12.19404,-5.39052 -19.11648,-5.39052 -0.34387,-0.01003 -0.67929,0 -1.02534,0 -6.92175,0 -13.4187,2.015371 -19.10012,5.39052 C 27.177624,15.673234 19.962317,10.269742 11.786586,8.7117427 Z"
  />
  <path
    style="fill:#e78ebc;stroke-width:0.69145703"
    d="m 17.24046,61.937516 c -4.74356,-0.0364 -8.6919133,4.81865 -11.2782813,12.44716 v 0.0168 c 0.484407,0.31388 0.969632,0.61106 1.455267,0.90121 0.423992,0.25333 0.847985,0.49533 1.273273,0.73118 0.104327,0.0574 0.209473,0.11355 0.31421,0.1701 0.221201,0.12038 0.439948,0.24121 0.66149,0.35708 0.301527,0.15546 0.6038043,0.31098 0.9095593,0.45916 0.07739,0.038 0.154036,0.0812 0.231498,0.11903 6.791993,3.3086 13.8401,4.61699 21.811948,5.25442 0.29635,0.0266 0.59399,0.0603 0.89299,0.0851 2.02539,3.36288 4.62976,5.05529 7.47476,5.93449 0.0334,0.0119 0.0661,0.0224 0.0993,0.0344 0.17518,0.0526 0.35213,0.10608 0.52914,0.15299 2.91988,0.88025 5.94817,0.89729 8.76488,0.83327 2.81643,0.0638 5.84472,0.0463 8.76487,-0.83327 0.21063,-0.0561 0.42024,-0.12277 0.62842,-0.18707 2.84494,-0.8792 5.4493,-2.57161 7.47476,-5.93463 0.27923,-0.0231 0.5498,-0.0596 0.82678,-0.085 7.99912,-0.63554 15.06748,-1.93656 21.87809,-5.25442 0.12615,-0.0613 0.25441,-0.12419 0.38035,-0.18706 0.41833,-0.20478 0.82978,-0.42749 1.24027,-0.64614 0.093,-0.0503 0.18813,-0.10214 0.28114,-0.15308 0.072,-0.0393 0.14313,-0.0794 0.215,-0.11902 0.42528,-0.23587 0.84928,-0.47785 1.27327,-0.73118 0.4857,-0.29015 0.97086,-0.58733 1.45526,-0.90121 v -0.0168 c -3.18342,-9.39076 -8.42666,-14.58573 -14.68494,-11.61417 -2.61399,7.05517 -7.68615,11.33791 -15.8421,12.17511 -2.55971,-5.88324 -5.07086,-10.81905 -13.89124,-10.81905 -8.82038,0 -11.33147,4.93595 -13.89124,10.81905 -8.15596,-0.83776 -13.228462,-5.12043 -15.842104,-12.17511 -1.17406,-0.55744 -2.311161,-0.82486 -3.4066,-0.8332 z"
  />
  <path
    style="fill:#4b568b;stroke-width:0.69145703"
    d="m 30.946234,56.314136 c -0.50521,0.69221 -0.81035,1.55064 -0.81035,2.4827 0,2.28827 1.80971,4.14917 4.03496,4.14917 2.02804,0 3.68726,-1.54888 3.96887,-3.55395 l -7.19382,-3.07785 z"
  />
  <path
    style="fill:#4b568b;stroke-width:0.69145703"
    d="m 69.472404,56.314136 c 0.50513,0.69221 0.81028,1.55064 0.81028,2.4827 0,2.28827 -1.80971,4.14917 -4.03502,4.14917 -2.02798,0 -3.68713,-1.54888 -3.96881,-3.55395 l 7.19382,-3.07785 z"
  />
  <path
    style="fill:#4b568b;stroke-width:0.69145703"
    d="m 42.129054,66.789606 c 1.08814,-4.18486 16.20008,-4.58628 17.7534,0 1.33042,3.92788 -4.82191,8.99601 -8.8767,9.00793 -3.69422,0.0103 -9.97044,-4.80049 -8.8767,-9.00793 z"
  />
  <path
    style="fill:#c276c8;stroke-width:0.69145703"
    d="m 14.444756,17.237964 c 4.371867,2.906207 8.623725,5.986374 11.324648,11.221516 -4.091957,3.943938 -6.768537,7.214332 -9.287876,12.505357 C 12.434712,30.215909 12.765969,23.099039 14.444551,17.237964 Z"
  />
  <path
    style="fill:#c276c8;stroke-width:0.69145703"
    d="m 85.632934,17.237964 c -4.3718,2.906207 -8.62372,5.986374 -11.32464,11.221516 4.09195,3.943938 6.76853,7.214332 9.28787,12.505357 4.04682,-10.748928 3.71563,-17.865798 2.03698,-23.726873 z"
  />
  <path
    style="fill:#c276c8;stroke-width:0.69145703"
    d="m 61.221664,38.77789 c 3.20647,-1.641508 10.81801,2.294857 14.03103,6.407496 1.6226,2.898986 1.72727,5.624571 1.08814,8.26539 l -19.46628,8.16231 c 4.07531,-5.99128 5.30945,-13.735209 4.34684,-22.834986 z"
  />
  <path
    style="fill:#c276c8;stroke-width:0.69145703"
    d="m 39.674284,38.77789 c -3.20647,-1.641508 -10.81801,2.294857 -14.03171,6.407496 -1.622531,2.898986 -1.727199,5.624571 -1.088074,8.26539 l 19.466284,8.16231 c -4.07525,-5.99128 -5.30938,-13.735209 -4.34677,-22.834986 z"
  />
</svg>
